<?xml version="1.0" encoding="utf-8"?>
<!-- Generator: Adobe Illustrator 17.1.0, SVG Export Plug-In . SVG Version: 6.00 Build 0)  -->
<!DOCTYPE svg PUBLIC "-//W3C//DTD SVG 1.1//EN" "http://www.w3.org/Graphics/SVG/1.1/DTD/svg11.dtd">
<svg version="1.1" id="Layer_1" xmlns="http://www.w3.org/2000/svg" xmlns:xlink="http://www.w3.org/1999/xlink" x="0px" y="0px"
	 viewBox="291.3 9.3 154.1 38.8" enable-background="new 291.3 9.3 154.1 38.8" xml:space="preserve">
<g>
	<path d="M291.3,12.8h15.3v2.4H294v9.9h10.3v2.4H294v10.1h13.4V40h-16V12.8z"/>
	<path d="M322.9,28h1.1v-0.5c0-3.8-2.1-5-4.8-5c-3.2,0-5.5,1.9-5.5,1.9l-1.2-2c0,0,2.6-2.2,6.9-2.2c4.7,0,7.3,2.6,7.3,7.5V40h-2.5
		v-2.1c0-1,0.1-1.6,0.1-1.6h-0.1c0,0-1.6,4.2-6.5,4.2c-3.3,0-6.6-1.9-6.6-5.8C311,28.1,319.6,28,322.9,28z M318.1,38.2
		c3.7,0,6-3.9,6-7.2v-0.9h-1.1c-3.1,0-9.2,0.1-9.2,4.4C313.7,36.4,315.2,38.2,318.1,38.2z"/>
	<path d="M339.5,45.8c3.8,0,6.8-1.8,6.8-6.1v-1.8c0-0.7,0.1-1.4,0.1-1.4h-0.1c-1.2,2.2-3.1,3.4-6.2,3.4c-5.2,0-8.7-4.1-8.7-10
		s3.2-9.8,8.4-9.8c5.1,0,6.4,3.3,6.4,3.3h0.1c0,0,0-0.2,0-0.7v-2.1h2.6v19c0,6.2-4.6,8.6-9.3,8.6c-2.2,0-4.5-0.6-6.4-1.5l1-2.2
		C334.2,44.4,336.6,45.8,339.5,45.8z M346.3,29.9c0-5.7-2.7-7.4-6.2-7.4c-3.8,0-6,2.7-6,7.4s2.5,7.7,6.4,7.7
		C343.6,37.5,346.3,35.7,346.3,29.9z"/>
	<path d="M355,12.8h2.6v22c0,2.6,1.2,2.9,2.2,2.9c0.3,0,0.7,0,0.7,0v2.4c0,0-0.5,0.1-1,0.1c-1.6,0-4.5-0.5-4.5-4.8L355,12.8
		L355,12.8z"/>
	<path d="M373,20.1c5.4,0,8.1,4.1,8.1,9c0,0.5-0.1,1.4-0.1,1.4h-14.9c0.1,5,3.5,7.7,7.5,7.7c3.6,0,5.9-2.4,5.9-2.4l1.2,2
		c0,0-2.8,2.7-7.2,2.7c-5.8,0-10.2-4.2-10.2-10.2C363.4,23.9,367.8,20.1,373,20.1z M378.5,28.3c-0.2-4.1-2.6-6-5.5-6
		c-3.3,0-6.1,2.1-6.7,6H378.5z"/>
	<path d="M387,12.8h2.6l13.9,19.6c0.9,1.4,2.2,3.7,2.2,3.7h0.1c0,0-0.2-2.2-0.2-3.7V12.8h2.7V40h-2.6l-13.9-19.6
		c-0.9-1.4-2.2-3.7-2.2-3.7h-0.1c0,0,0.2,2.2,0.2,3.7V40H387L387,12.8L387,12.8z"/>
	<path d="M423.6,20.1c5.4,0,8.1,4.1,8.1,9c0,0.5-0.1,1.4-0.1,1.4h-14.9c0.1,5,3.5,7.7,7.5,7.7c3.6,0,5.9-2.4,5.9-2.4l1.2,2
		c0,0-2.8,2.7-7.2,2.7c-5.8,0-10.2-4.2-10.2-10.2C414,23.9,418.3,20.1,423.6,20.1z M429,28.3c-0.2-4.1-2.6-6-5.5-6
		c-3.3,0-6.1,2.1-6.7,6H429z"/>
	<path d="M437.5,23h-2.6v-2.2h2.6v-5.6h2.6v5.6h4.9V23h-4.9v9.7c0,4.6,2.9,5.1,4.4,5.1c0.5,0,0.9-0.1,0.9-0.1v2.4
		c0,0-0.4,0.1-1.1,0.1c-2.2,0-6.8-0.7-6.8-7.2V23z"/>
</g>
</svg>
