<?xml version="1.0" encoding="utf-8"?>
<!-- Generator: Adobe Illustrator 18.0.0, SVG Export Plug-In . SVG Version: 6.00 Build 0)  -->
<!DOCTYPE svg PUBLIC "-//W3C//DTD SVG 1.1//EN" "http://www.w3.org/Graphics/SVG/1.1/DTD/svg11.dtd">
<svg version="1.1" id="Layer_1" xmlns="http://www.w3.org/2000/svg" xmlns:xlink="http://www.w3.org/1999/xlink" x="0px" y="0px"
	 viewBox="0 0 1250 372" enable-background="new 0 0 1250 372" xml:space="preserve">
<g>
	<line fill="none" stroke="#002B5A" stroke-miterlimit="10" x1="445" y1="143.5" x2="467" y2="143.5"/>
	<line fill="none" stroke="#002B5A" stroke-miterlimit="10" x1="445" y1="149.5" x2="473" y2="149.5"/>
	<g>
		<path fill="none" stroke="#002B5A" stroke-miterlimit="10" d="M494.5,131v-9c0-1.8-0.1-1.5-2-1.5h-51.6c-1.8,0-5.4-0.3-5.4,1.5v9"
			/>
		<line fill="none" stroke="#002B5A" stroke-miterlimit="10" x1="494.5" y1="130.6" x2="494.5" y2="130.6"/>
		<line fill="none" stroke="#002B5A" stroke-miterlimit="10" x1="436" y1="130.6" x2="436" y2="130.6"/>
		<path fill="none" stroke="#002B5A" stroke-miterlimit="10" d="M494.5,131v22.3c0,1.8-0.1,4.2-2,4.2h-51.6c-1.8,0-5.4-2.4-5.4-4.2
			V131"/>
		<path fill="none" stroke="#002B5A" stroke-miterlimit="10" d="M471,133.5h-31.2c-1.8,0-4.4-0.8-4.4-1.5"/>
		<path fill="none" stroke="#002B5A" stroke-miterlimit="10" d="M485,133.5h6.5c1.8,0,2.4-0.7,2.4-1.3"/>
		<line fill="none" stroke="#002B5A" stroke-miterlimit="10" x1="485" y1="132.7" x2="485" y2="132.7"/>
		<polyline fill="none" stroke="#002B5A" stroke-miterlimit="10" points="484.5,133 484.5,125.5 470.5,125.5 470.5,141.5 
			484.5,141.5 484.5,133 		"/>
	</g>
	<path fill="#002B5A" d="M491.1,139.2c-6.1,0-11,4.9-11,11c0,6.1,4.9,11,11,11c6.1,0,11-4.9,11-11
		C502.1,144.2,497.2,139.2,491.1,139.2z M491,155.5v1.5h-1v-1.4c-1,0-1.9-0.3-2.5-0.8l0.5-1.2c0.6,0.4,1.6,0.8,2.6,0.8
		c1.2,0,2.1-0.7,2.1-1.7c0-1-0.7-1.6-2-2.1c-1.8-0.7-3.1-1.5-3.1-3.1c0-1.5,1.4-2.6,2.4-2.8V143h2v1.6c1,0,1.5,0.3,2.1,0.6l-0.6,1.2
		c-0.4-0.2-1.1-0.6-2.3-0.6c-1.4,0-1.9,0.8-1.9,1.5c0,0.9,0.6,1.4,2.2,2c1.8,0.7,2.5,1.6,2.5,3.2C494,153.9,493,155.3,491,155.5z"/>
</g>
</svg>
