<?xml version="1.0" encoding="utf-8"?>
<!-- Generator: Adobe Illustrator 18.1.1, SVG Export Plug-In . SVG Version: 6.00 Build 0)  -->
<svg version="1.1" xmlns="http://www.w3.org/2000/svg" xmlns:xlink="http://www.w3.org/1999/xlink" x="0px" y="0px"
	 viewBox="0 0 168 166" enable-background="new 0 0 168 166" xml:space="preserve">
<g id="Background_xA0_Image_1_">
</g>
<g id="U">
</g>
<g id="my_xA0_Image_1_">
</g>
<g id="my_1_">
	<g>
		<path fill="#002D5C" d="M24.7,36.6H40v4.1c0,1.6-0.2,2.9-0.2,2.9H40c2.2-3.3,6.6-8.2,14.1-8.2c6,0,10.8,2.7,13.2,8h0.2
			c2.5-4,8.1-8,15.2-8c8.6,0,15.4,4.7,15.4,17.8v30.7H82.1V55.9c0-3.5-0.6-6-3.7-6c-5.1,0-7.7,3.7-8.7,8.9c-0.4,1.7-0.4,3.6-0.4,5.5
			v19.6H53.4V55.9c0-3.5-0.6-6-3.7-6c-5,0-7.5,3.5-8.6,8.6c-0.4,1.7-0.5,3.9-0.5,5.9v19.6H24.7V36.6z"/>
		<path fill="#002D5C" d="M104.7,88.3c0,0,2.6,1.7,4.9,1.7c2.6,0,6-0.7,7.6-4.8l0.9-2.2L98,36.6h18l7,21.8c0.8,2.6,1.7,7.4,1.7,7.4
			h0.2c0,0,0.9-4.5,1.6-7.1l6-22.1h17.4L130.5,89c-4,10.6-12.2,14.3-19.8,14.3c-6.3,0-11-3.3-11-3.3L104.7,88.3z"/>
	</g>
	<g>
		<path fill="#002D5C" d="M133.2,90c-1.4,3.8-3.5,7-6,9.5v3.9c0,26.9-17.3,42.8-43.7,42.8c-26.4,0-43.5-15.9-43.5-42.4V86.6H24.7
			v17.4c0,34.1,24,56.1,59,56.1c34.7,0,58.5-22.1,58.5-56.1V65.5L133.2,90z"/>
		<polygon fill="#002D5C" points="142.3,34.2 142.3,4 127.2,4 127.2,48.1 130.9,34.2 		"/>
		<rect x="24.7" y="4" fill="#002D5C" width="15.3" height="30.2"/>
	</g>
</g>
</svg>
