<?xml version="1.0" encoding="utf-8"?>
<!-- Generator: Adobe Illustrator 18.0.0, SVG Export Plug-In . SVG Version: 6.00 Build 0)  -->
<!DOCTYPE svg PUBLIC "-//W3C//DTD SVG 1.1//EN" "http://www.w3.org/Graphics/SVG/1.1/DTD/svg11.dtd">
<svg version="1.1" id="Layer_1" xmlns="http://www.w3.org/2000/svg" xmlns:xlink="http://www.w3.org/1999/xlink" x="0px" y="0px"
	 viewBox="0 0 1250 372" enable-background="new 0 0 1250 372" xml:space="preserve">
<g>
	<path fill="#002B5A" d="M615.8,39h-22.6c-2.3,0-4.2,1.3-4.2,3.2V63h31V42.2C620,40.3,618.1,39,615.8,39z M607,50.9v3.4
		c0,1.1-1.1,2-2,2s-2-0.9-2-2V51c0-0.6-1.7-1.7-1.7-3c0-1.9,1.8-3.4,3.8-3.4c2,0,3.6,1.5,3.6,3.4C608.7,49.2,607,50.5,607,50.9z"/>
	<path fill="#002B5A" d="M591.6,37h2.6c0,0,0-0.2,0-0.6c-0.1-2-0.3-6.3,2.4-9.1c1.6-1.7,4.1-2.5,7.4-2.5c3.2,0,5.7,0.8,7.4,2.5
		c2.8,2.8,2.8,7.4,2.7,9.4l0,0.4h2.6l0-0.3c0-2.3,0.1-7.6-3.5-11.2c-2.2-2.2-5.3-3.3-9.3-3.3c-4,0-7.2,1.1-9.3,3.3
		c-3.5,3.6-3.2,8.9-3.1,11.2C591.5,36.8,591.6,37,591.6,37z"/>
</g>
</svg>
