<?xml version="1.0" encoding="utf-8"?>
<!-- Generator: Adobe Illustrator 17.1.0, SVG Export Plug-In . SVG Version: 6.00 Build 0)  -->
<!DOCTYPE svg PUBLIC "-//W3C//DTD SVG 1.1//EN" "http://www.w3.org/Graphics/SVG/1.1/DTD/svg11.dtd">
<svg version="1.1" id="Layer_1" xmlns="http://www.w3.org/2000/svg" xmlns:xlink="http://www.w3.org/1999/xlink" x="0px" y="0px"
	 viewBox="0 0 738 60" enable-background="new 0 0 738 60" xml:space="preserve">
<g>
	<polygon points="350.038,39.956 350.332,38.724 349.296,38.098 349.305,38.091 349.036,32.923 366.712,43.295 389.383,30.015 
		387.265,28.756 389.616,27.295 388.545,26.725 388.39,26.821 388.396,26.875 366.792,40.066 349.275,29.567 348.827,24.183 
		351.903,25.992 366.697,34.672 370.451,32.491 389.383,21.402 370.002,9.917 347.75,23.324 348.208,30 348.25,30.25 
		349.654,31.104 347.75,32.235 348.288,39 348.348,39 349.9,39.902 	"/>
	<polygon points="366.792,48.68 356.443,42.421 355.872,43.563 366.752,50.351 389.616,36.024 388.545,35.339 	"/>
	<polygon points="351.99,36.476 349.814,43.026 352.505,42.695 354.21,45.807 356.902,39.706 	"/>
</g>
</svg>
