<?xml version="1.0" encoding="utf-8"?>
<!-- Generator: Adobe Illustrator 17.1.0, SVG Export Plug-In . SVG Version: 6.00 Build 0)  -->
<!DOCTYPE svg PUBLIC "-//W3C//DTD SVG 1.1//EN" "http://www.w3.org/Graphics/SVG/1.1/DTD/svg11.dtd">
<svg version="1.1" id="Layer_1" xmlns="http://www.w3.org/2000/svg" xmlns:xlink="http://www.w3.org/1999/xlink" x="0px" y="0px"
	 viewBox="0 0 738 60" enable-background="new 0 0 738 60" xml:space="preserve">
<g>
	<g>
		<g>
			<path fill-rule="evenodd" clip-rule="evenodd" d="M349.396,9.16c-10.833,2.304-23.064,4.837-23.064,17.512
				c0,2.758,1.017,5.479,1.993,7.118c6.803,11.419,29.186,12.787,46.555,10.678c17.978-2.183,33.388-7.371,42.569-16.657
				c-8.324,12.883-25.55,19.004-44.846,21.355c-19.907,2.426-44.458-0.725-50.257-14.664c-2.946-7.081-0.225-14.869,3.702-18.65
				C331.287,10.804,339.283,8.633,349.396,9.16z"/>
			<path fill-rule="evenodd" clip-rule="evenodd" d="M387.979,9.302c2.657,0,5.315,0,7.972,0c2.207,8.187,4.719,16.067,6.977,24.203
				c-2.468,0-4.936,0-7.403,0c-0.372-1.669-0.7-3.382-1.282-4.84c-4.461,0-8.922,0-13.383,0c-1.29,1.462-2.163,3.341-3.417,4.84
				c-2.183,0-4.366,0-6.549,0C376.474,25.323,382.237,17.324,387.979,9.302z M390.399,14.001l-6.549,10.393l9.397-0.142
				L390.399,14.001z"/>
			<path fill-rule="evenodd" clip-rule="evenodd" d="M375.307,9.302c2.136,0,4.271,0,6.407,0
				c-5.052,8.386-10.002,16.726-14.664,24.203c-2.658,0-5.315,0-7.973,0c-1.436-8.198-3.307-15.961-4.698-24.203
				c2.373,0,4.745,0,7.118,0c0.811,6.782,1.87,13.316,2.705,20.074C368.029,22.426,371.49,16.442,375.307,9.302z"/>
			<path fill-rule="evenodd" clip-rule="evenodd" d="M353.383,26.53c-4.841,0-9.681,0-14.522,0
				c-2.067,4.866,6.444,5.558,7.403,1.993c2.088,0,4.176,0,6.264,0c-2.208,7.276-21.085,8.838-19.932-2.421
				c0.61-5.95,5.841-9.861,11.817-10.108C350.96,15.724,354.988,18.783,353.383,26.53z M339.573,23.255c2.658,0,5.315,0,7.973,0
				C348.88,17.37,339.248,19.018,339.573,23.255z"/>
		</g>
	</g>
</g>
</svg>
