<?xml version="1.0" encoding="utf-8"?>
<!-- Generator: Adobe Illustrator 17.1.0, SVG Export Plug-In . SVG Version: 6.00 Build 0)  -->
<!DOCTYPE svg PUBLIC "-//W3C//DTD SVG 1.1//EN" "http://www.w3.org/Graphics/SVG/1.1/DTD/svg11.dtd">
<svg version="1.1" id="Layer_1" xmlns="http://www.w3.org/2000/svg" xmlns:xlink="http://www.w3.org/1999/xlink" x="0px" y="0px"
	 viewBox="0 0 738 60" enable-background="new 0 0 738 60" xml:space="preserve">
<g>
	<path fill="none" d="M389.811,29.162c1.585,0,3.189,0.345,4.189,0.952V22.55c-1,0.262-1.921,0.45-2.898,0.45H385v7.414
		C386,29.618,387.98,29.162,389.811,29.162z"/>
	<path fill="none" d="M390,47v-1.655c2-0.28,2.755-1.572,2.755-2.97c0-1.555-0.894-2.446-2.694-3.18
		c-1.52-0.646-2.183-1.101-2.183-1.992c0-0.717,0.491-1.52,1.836-1.52c1.118,0,1.81,0.402,2.176,0.612l0.43-1.153
		c-0.523-0.297-1.322-0.577-2.322-0.611V33h-1v1.583c-1,0.262-2.622,1.363-2.622,2.813c0,1.52,1.134,2.341,2.916,3.04
		c1.294,0.524,1.957,1.118,1.957,2.079c0,0.996-0.85,1.712-2.09,1.712c-0.979,0-1.896-0.349-2.507-0.751l-0.361,1.17
		c0.611,0.437,1.706,0.752,2.706,0.769V47H390z"/>
	<path fill="none" d="M378.779,39.981c0-3.101,1.298-5.981,3.373-7.981H370v-9h-30.211c-0.974,0-1.789-0.162-2.789-0.399v21.548
		c0,1.506,1.283,2.851,2.788,2.851h41.463C379.707,45,378.779,42.608,378.779,39.981z M343,34h23v1h-23V34z M372,41h-29v-1h29V41z"
		/>
	<rect x="343" y="34" width="23" height="1"/>
	<rect x="343" y="40" width="29" height="1"/>
	<path fill="#FFFFFF" d="M384,31.042v-8.353V16h-13v6.689V31h12.436C383.484,31,384,31.075,384,31.042z"/>
	<path d="M395,30.661V20.574v-8.921c0-2.048-2.098-1.654-3.898-1.654h-51.313C338.996,10,336,9.803,336,11.588v9.647v0.613v22.301
		c0,2.089,1.699,3.851,3.788,3.851h42.468c1.952,2,4.565,2.979,7.447,2.979c6.033,0,10.821-4.875,10.821-10.908
		C400.524,36.047,398,32.557,395,30.661z M391.102,23c0.978,0,1.898-0.188,2.898-0.45v7.564c-1-0.607-2.604-0.952-4.189-0.952
		c-1.831,0-3.811,0.456-4.811,1.252V23H391.102z M386.291,44.646l0.393-1.17c0.611,0.402,1.507,0.751,2.485,0.751
		c1.24,0,2.073-0.717,2.073-1.712c0-0.961-0.685-1.555-1.978-2.079c-1.782-0.699-2.884-1.52-2.884-3.04
		c0-1.45,1.62-2.551,2.62-2.813V33h1v1.531c1,0.035,1.797,0.314,2.32,0.611l-0.412,1.153c-0.367-0.21-1.071-0.612-2.189-0.612
		c-1.345,0-1.846,0.804-1.846,1.52c0,0.891,0.65,1.345,2.17,1.992c1.8,0.734,2.713,1.625,2.713,3.18c0,1.397-0.757,2.69-2.757,2.97
		V47h-1v-1.585C388,45.398,386.903,45.083,386.291,44.646z M371,22.689V16h13v6.689v8.353c0,0.033-0.516-0.042-0.564-0.042H371
		V22.689z M337,44.149V22.601c1,0.237,1.815,0.399,2.789,0.399H370v9h12.152c-2.075,2-3.373,4.88-3.373,7.981
		c0,2.626,0.928,5.019,2.473,7.019h-41.463C338.283,47,337,45.655,337,44.149z"/>
</g>
</svg>
