<?xml version="1.0" encoding="utf-8"?>
<!-- Generator: Adobe Illustrator 18.0.0, SVG Export Plug-In . SVG Version: 6.00 Build 0)  -->
<!DOCTYPE svg PUBLIC "-//W3C//DTD SVG 1.1//EN" "http://www.w3.org/Graphics/SVG/1.1/DTD/svg11.dtd">
<svg version="1.1" id="Layer_1" xmlns="http://www.w3.org/2000/svg" xmlns:xlink="http://www.w3.org/1999/xlink" x="0px" y="0px"
	 viewBox="0 0 1250 372" enable-background="new 0 0 1250 372" xml:space="preserve">
<path fill="#002B5A" d="M906.7,23.6l-0.2-0.1c-1.2-0.7-2.6-1-3.9-1c-2.8,0-5.2,1.4-6.5,3.7L892,34c-0.9-0.3-1.8-0.5-2.7-0.5
	c-2.8,0-5.2,1.4-6.5,3.7l-7.9,14.7c-1.9,3.5-0.3,8.1,3.5,10.2l0.2,0.1c1.2,0.7,2.6,1,3.9,1c0,0,0,0,0,0c2.8,0,5.2-1.4,6.5-3.7
	l4.2-7.8c0.9,0.3,1.8,0.5,2.7,0.5c0,0,0,0,0,0c2.8,0,5.2-1.4,6.5-3.7l7.9-14.7C912.1,30.2,910.5,25.7,906.7,23.6z M893.5,40.4
	c0.3,0.9,0.3,1.8-0.1,2.5l-1.5,2.8c-0.1-0.1-0.1-0.3-0.2-0.4c-0.3-0.9-0.3-1.8,0.1-2.5l1.5-2.8C893.4,40.1,893.4,40.2,893.5,40.4z
	 M885.5,57.5c-0.5,1-1.6,1.6-2.9,1.6c-0.7,0-1.4-0.2-2-0.5l-0.2-0.1c-1.9-1-2.7-3.1-1.8-4.7l7.9-14.7c0.5-1,1.6-1.6,2.9-1.6
	c0.3,0,0.5,0,0.8,0.1l-1.8,3.3c-0.9,1.8-1.1,3.8-0.4,5.7c0.4,1.1,1,2.1,1.9,2.9L885.5,57.5z M906.7,31.9l-7.9,14.7
	c-0.5,1-1.6,1.6-2.9,1.6c-0.3,0-0.5,0-0.8-0.1l1.8-3.3c0.9-1.8,1.1-3.8,0.4-5.7c-0.4-1.1-1-2.1-1.9-2.9l4.3-8c0.5-1,1.6-1.6,2.9-1.6
	c0.7,0,1.4,0.2,2,0.5l0.2,0.1C906.7,28.1,907.5,30.3,906.7,31.9z"/>
</svg>
