<?xml version="1.0" encoding="utf-8"?>
<!-- Generator: Adobe Illustrator 18.1.1, SVG Export Plug-In . SVG Version: 6.00 Build 0)  -->
<!DOCTYPE svg PUBLIC "-//W3C//DTD SVG 1.1//EN" "http://www.w3.org/Graphics/SVG/1.1/DTD/svg11.dtd">
<svg version="1.1" id="Layer_1" xmlns="http://www.w3.org/2000/svg" xmlns:xlink="http://www.w3.org/1999/xlink" x="0px" y="0px"
	 viewBox="102.7 188.9 27.1 16.7" enable-background="new 102.7 188.9 27.1 16.7" xml:space="preserve">
<g>
	<path fill="#002B5A" d="M129.8,192.5c0,0.4,0,0.9-0.2,1.4c-0.1,0.5-0.2,0.7-0.3,0.7c-0.1,0-0.1,0-0.1-0.1c0,0,0,0,0-0.1
		c0.2-0.6,0.3-1.1,0.3-1.8c0-1-0.3-1.8-0.9-2.4c-0.6-0.6-1.4-0.9-2.4-0.9c-1.3,0-2.7,0.5-4.1,1.3c1.1,0.8,1.7,1.8,1.7,2.9
		c0,1.8-1.2,2.8-3.6,3.2c2,0.7,3,2,3,3.8c0,1.4-0.6,2.6-1.8,3.6c-1.2,1-2.5,1.6-4.1,1.6c-0.7,0-1.4-0.2-1.8-0.6
		c-0.5-0.4-0.7-0.9-0.7-1.6c0-1,0.5-2,1.4-3c0.9-1,1.9-1.5,2.8-1.5c0.5,0,0.9,0.2,1.3,0.5c0.3,0.3,0.5,0.7,0.5,1.3
		c0,0.3-0.1,0.7-0.3,1.1c-0.2,0.5-0.3,0.7-0.5,0.7c-0.1,0-0.1,0-0.1-0.1c0,0,0-0.1,0-0.2c0.4-0.6,0.6-1.1,0.6-1.6
		c0-0.5-0.2-0.8-0.5-1.1c-0.3-0.3-0.7-0.4-1.1-0.4c-0.9,0-1.8,0.5-2.7,1.4c-0.9,0.9-1.3,1.9-1.3,2.9c0,0.5,0.2,1,0.5,1.3
		c0.4,0.4,0.8,0.5,1.4,0.5c1.2,0,2.3-0.6,3.4-1.8c1-1.2,1.5-2.5,1.5-3.9c0-1.3-0.7-2.3-1.9-2.9l-0.7,0.1c-0.2,0-0.4,0-0.6,0
		c-0.6,0-0.9-0.1-0.9-0.3c0-0.2,0.2-0.2,0.7-0.2c0.4,0,0.8,0.1,1.4,0.2c0.8-0.2,1.5-0.7,2-1.4c0.5-0.7,0.7-1.4,0.7-2.2
		s-0.3-1.5-0.9-2.2c-1.8,1.4-3.4,3.6-5,6.8c-0.9,2-1.8,3.4-2.6,4.3c-0.8,0.9-1.8,1.6-3.3,2.3c-1.7,0.8-3.2,1.2-4.5,1.2
		c-1.1,0-2-0.2-2.7-0.7s-1.1-1.1-1.1-1.8c0-0.4,0.1-0.8,0.4-1.1c0.2-0.3,0.5-0.5,0.9-0.5c0.5,0,0.7,0.3,0.7,0.8
		c0,0.3-0.1,0.5-0.2,0.7s-0.4,0.3-0.6,0.3c-0.4,0-0.6-0.2-0.6-0.7c0-0.2,0-0.2,0-0.2c-0.1,0-0.2,0.2-0.2,0.7c0,0.7,0.3,1.2,1,1.6
		c0.7,0.5,1.5,0.7,2.5,0.7c1.8,0,3.3-0.7,4.8-1.9c0.6-0.6,1.1-1.1,1.6-1.8c0.5-0.6,1.5-2.2,3.1-4.7c0.8-1.2,1.8-2.4,2.9-3.6
		c1.1-1.2,2-2.1,2.8-2.6c-1.3-1.1-3.1-1.6-5.5-1.6c-3.4,0-6.3,1.2-8.8,3.6c-2,2-3.1,3.9-3.1,5.7c0,0.9,0.3,1.6,0.9,2.1
		c0.6,0.5,1.4,0.8,2.3,0.8c1.6,0,3.3-0.8,5-2.3c1.7-1.6,2.6-3,2.6-4.5c0-1.1-0.6-1.7-1.8-1.7c-1.2,0-2.5,0.7-3.8,2s-2,2.6-2,3.7
		c0,0.3,0.1,0.5,0.3,0.7c0.2,0.2,0.4,0.3,0.7,0.3c0.1,0,0.2,0,0.2,0.1c0,0.1-0.1,0.1-0.2,0.1c-0.4,0-0.7-0.2-1-0.5
		c-0.2-0.3-0.4-0.8-0.4-1.3c0-1.2,0.7-2.5,2-3.6c1.4-1.2,2.8-1.8,4.2-1.8c1.4,0,2,0.7,2,1.9c0,1.6-0.9,3.1-2.6,4.7
		c-1.8,1.6-3.5,2.4-5.2,2.4c-1.1,0-2-0.3-2.7-1c-0.7-0.7-1-1.6-1-2.7c0-2.3,1.3-4.3,3.8-6.2c2.5-1.9,5.4-2.8,8.5-2.8
		c2.3,0,4.3,0.5,5.9,1.6c1.5-0.9,2.9-1.4,4.3-1.4c1.1,0,1.9,0.3,2.6,0.9C129.5,190.6,129.8,191.5,129.8,192.5z"/>
</g>
</svg>
