<?xml version="1.0" encoding="utf-8"?>
<!-- Generator: Adobe Illustrator 18.1.1, SVG Export Plug-In . SVG Version: 6.00 Build 0)  -->
<!DOCTYPE svg PUBLIC "-//W3C//DTD SVG 1.1//EN" "http://www.w3.org/Graphics/SVG/1.1/DTD/svg11.dtd">
<svg version="1.1" id="Layer_1" xmlns="http://www.w3.org/2000/svg" xmlns:xlink="http://www.w3.org/1999/xlink" x="0px" y="0px"
	 viewBox="9.1 191.2 63.1 14.5" enable-background="new 9.1 191.2 63.1 14.5" xml:space="preserve">
<g>
	<path fill="#002B5A" d="M9.1,191.2h6.3v1h-5.2v4.1h4.2v1h-4.2v4.1h5.5v1H9.2L9.1,191.2L9.1,191.2z"/>
	<path fill="#002B5A" d="M22.1,197.4h0.5v-0.2c0-1.6-0.9-2-2-2c-1.3,0-2.3,0.8-2.3,0.8l-0.5-0.8c0,0,1.1-0.9,2.8-0.9
		c1.9,0,3,1.1,3,3.1v5h-1v-0.9c0-0.4,0-0.7,0-0.7h0c0,0-0.7,1.7-2.7,1.7c-1.4,0-2.7-0.8-2.7-2.4C17.2,197.5,20.7,197.4,22.1,197.4z
		 M20.1,201.6c1.5,0,2.5-1.6,2.5-2.9v-0.4h-0.5c-1.3,0-3.8,0-3.8,1.8C18.3,200.9,18.9,201.6,20.1,201.6z"/>
	<path fill="#002B5A" d="M28.9,204.7c1.6,0,2.8-0.7,2.8-2.5v-0.7c0-0.3,0-0.6,0-0.6h0c-0.5,0.9-1.3,1.4-2.5,1.4
		c-2.1,0-3.6-1.7-3.6-4.1s1.3-4,3.4-4c2.1,0,2.6,1.4,2.6,1.4h0c0,0,0-0.1,0-0.3v-0.9h1.1v7.8c0,2.5-1.9,3.5-3.8,3.5
		c-0.9,0-1.8-0.2-2.6-0.6l0.4-0.9C26.7,204.1,27.7,204.7,28.9,204.7z M31.7,198.2c0-2.3-1.1-3-2.5-3c-1.6,0-2.5,1.1-2.5,3
		c0,1.9,1,3.2,2.6,3.2C30.6,201.3,31.7,200.6,31.7,198.2z"/>
	<path fill="#002B5A" d="M35.2,191.2h1.1v9c0,1.1,0.5,1.2,0.9,1.2c0.1,0,0.3,0,0.3,0v1c0,0-0.2,0-0.4,0c-0.7,0-1.8-0.2-1.8-2
		C35.2,200.5,35.2,191.2,35.2,191.2z"/>
	<path fill="#002B5A" d="M42.6,194.2c2.2,0,3.3,1.7,3.3,3.7c0,0.2,0,0.6,0,0.6h-6.1c0,2,1.4,3.2,3.1,3.2c1.5,0,2.4-1,2.4-1l0.5,0.8
		c0,0-1.1,1.1-2.9,1.1c-2.4,0-4.2-1.7-4.2-4.2C38.7,195.7,40.5,194.2,42.6,194.2z M44.9,197.6c-0.1-1.7-1.1-2.5-2.3-2.5
		c-1.4,0-2.5,0.9-2.7,2.5H44.9z"/>
	<path fill="#002B5A" d="M48.3,191.2h1.1l5.7,8c0.4,0.6,0.9,1.5,0.9,1.5h0c0,0-0.1-0.9-0.1-1.5v-8h1.1v11.1H56l-5.7-8
		c-0.4-0.6-0.9-1.5-0.9-1.5h0c0,0,0.1,0.9,0.1,1.5v8h-1.1V191.2z"/>
	<path fill="#002B5A" d="M63.3,194.2c2.2,0,3.3,1.7,3.3,3.7c0,0.2,0,0.6,0,0.6h-6.1c0,2,1.4,3.2,3.1,3.2c1.5,0,2.4-1,2.4-1l0.5,0.8
		c0,0-1.1,1.1-2.9,1.1c-2.4,0-4.2-1.7-4.2-4.2C59.4,195.7,61.2,194.2,63.3,194.2z M65.5,197.6c-0.1-1.7-1.1-2.5-2.3-2.5
		c-1.4,0-2.5,0.9-2.7,2.5H65.5z"/>
	<path fill="#002B5A" d="M69,195.4H68v-0.9H69v-2.3h1.1v2.3h2v0.9h-2v4c0,1.9,1.2,2.1,1.8,2.1c0.2,0,0.4,0,0.4,0v1c0,0-0.2,0-0.5,0
		c-0.9,0-2.8-0.3-2.8-2.9C69,199.5,69,195.4,69,195.4z"/>
</g>
</svg>
