<?xml version="1.0" encoding="utf-8"?>
<!-- Generator: Adobe Illustrator 18.1.1, SVG Export Plug-In . SVG Version: 6.00 Build 0)  -->
<!DOCTYPE svg PUBLIC "-//W3C//DTD SVG 1.1//EN" "http://www.w3.org/Graphics/SVG/1.1/DTD/svg11.dtd">
<svg version="1.1" id="Layer_1" xmlns="http://www.w3.org/2000/svg" xmlns:xlink="http://www.w3.org/1999/xlink" x="0px" y="0px"
	 viewBox="445.8 188 17.5 17.3" enable-background="new 445.8 188 17.5 17.3" xml:space="preserve">
<path fill="#002B5A" d="M463.1,197.3l-4.9-2.9c-0.1-0.1-0.2-0.2-0.2-0.3l0.3-5.7c0-0.4-0.4-0.5-0.7-0.3l-4.2,3.8
	c-0.1,0.1-0.2,0.1-0.4,0.1l-5.1-2.1c-0.3-0.1-0.7,0.2-0.5,0.5l2.1,5.2c0,0.1,0,0.3,0,0.4l-3.6,4.5c-0.2,0.3,0,0.7,0.4,0.7l5.7-0.7
	c0.1,0,0.3,0,0.4,0.2l3.2,4.6c0.2,0.3,0.7,0.2,0.7-0.1l1-5l-1-0.6c0,0-0.1,0-0.1,0l-1.6,1c-0.1,0-0.2,0-0.2-0.2l0.5-1.9
	c0,0,0-0.1,0-0.1l-1.4-1.3c-0.1-0.1,0-0.2,0.1-0.2l1.8-0.1c0,0,0.1,0,0.1-0.1l0.7-1.7c0-0.1,0.2-0.1,0.2,0l0.7,1.8
	c0,0,0,0.1,0.1,0.1l1.9,0.2c0.1,0,0.2,0.2,0.1,0.2l-1.5,1.2c0,0,0,0.1,0,0.1l0.2,0.9l5.2-1.3C463.3,198,463.4,197.6,463.1,197.3z"/>
</svg>
