<?xml version="1.0" encoding="utf-8"?>
<!-- Generator: Adobe Illustrator 17.1.0, SVG Export Plug-In . SVG Version: 6.00 Build 0)  -->
<!DOCTYPE svg PUBLIC "-//W3C//DTD SVG 1.1//EN" "http://www.w3.org/Graphics/SVG/1.1/DTD/svg11.dtd">
<svg version="1.1" id="Layer_1" xmlns="http://www.w3.org/2000/svg" xmlns:xlink="http://www.w3.org/1999/xlink" x="0px" y="0px"
	 viewBox="0 0 738 60" enable-background="new 0 0 738 60" xml:space="preserve">
<g>
	<path d="M379.848,26h-22.625c-2.302,0-4.223,1.253-4.223,3.2V50h31V29.2C384,27.253,382.15,26,379.848,26z M371,37.918v3.39
		c0,1.086-1.084,1.966-2,1.966s-2-0.88-2-1.966v-3.341c0-0.571-1.711-1.714-1.711-3.048c0-1.9,1.812-3.44,3.771-3.44
		c1.959,0,3.626,1.54,3.626,3.44C372.686,36.216,371,37.5,371,37.918z"/>
	<path d="M355.554,24h2.621c0,0-0.011-0.238-0.026-0.553c-0.089-1.959-0.298-6.333,2.38-9.136c1.611-1.686,4.098-2.55,7.392-2.55
		c3.249,0,5.739,0.834,7.403,2.516c2.802,2.834,2.75,7.396,2.728,9.36L378.05,24h2.621l0.003-0.347
		c0.026-2.292,0.086-7.595-3.485-11.208c-2.175-2.199-5.292-3.341-9.267-3.341c-4.038,0-7.163,1.073-9.287,3.296
		c-3.453,3.613-3.208,8.876-3.103,11.17C355.543,23.837,355.554,24,355.554,24z"/>
</g>
</svg>
