<?xml version="1.0" encoding="utf-8"?>
<!-- Generator: Adobe Illustrator 17.1.0, SVG Export Plug-In . SVG Version: 6.00 Build 0)  -->
<!DOCTYPE svg PUBLIC "-//W3C//DTD SVG 1.1//EN" "http://www.w3.org/Graphics/SVG/1.1/DTD/svg11.dtd">
<svg version="1.1" id="Layer_1" xmlns="http://www.w3.org/2000/svg" xmlns:xlink="http://www.w3.org/1999/xlink" x="0px" y="0px"
	 viewBox="0 0 738 60" enable-background="new 0 0 738 60" xml:space="preserve">
<path d="M382.71,10.613l-0.185-0.099c-1.22-0.654-2.579-1-3.932-1c-2.751,0-5.223,1.423-6.452,3.713l-4.164,7.76
	c-0.877-0.306-1.792-0.477-2.708-0.477c-2.75,0-5.222,1.422-6.452,3.713l-7.876,14.676c-1.902,3.546-0.342,8.101,3.479,10.152
	l0.186,0.099c1.219,0.654,2.578,1,3.931,1c0.001,0,0.001,0,0.001,0c2.75,0,5.222-1.423,6.451-3.713l4.164-7.76
	c0.876,0.305,1.791,0.476,2.707,0.477c0.001,0,0.001,0,0.001,0c2.75,0,5.222-1.423,6.451-3.713l7.877-14.677
	C388.092,17.217,386.531,12.664,382.71,10.613z M369.478,27.375c0.31,0.866,0.261,1.752-0.139,2.495l-1.505,2.805
	c-0.063-0.128-0.134-0.251-0.182-0.385c-0.31-0.866-0.261-1.752,0.139-2.495l1.505-2.805
	C369.359,27.117,369.43,27.24,369.478,27.375z M361.464,44.546c-0.538,1.005-1.633,1.604-2.926,1.604
	c-0.695,0-1.401-0.182-2.04-0.525l-0.185-0.099c-1.879-1.008-2.707-3.133-1.847-4.736l7.875-14.676
	c0.54-1.005,1.634-1.605,2.928-1.605c0.258,0,0.516,0.033,0.773,0.082l-1.776,3.31c-0.941,1.752-1.076,3.789-0.38,5.734
	c0.394,1.101,1.035,2.093,1.862,2.925L361.464,44.546z M382.664,18.873l-7.877,14.677c-0.538,1.005-1.633,1.604-2.926,1.604
	c-0.258,0-0.516-0.033-0.773-0.082l1.776-3.31c0.941-1.752,1.076-3.789,0.38-5.734c-0.394-1.102-1.035-2.093-1.862-2.925
	l4.285-7.984c0.539-1.005,1.633-1.604,2.927-1.604c0.694,0,1.399,0.182,2.039,0.525l0.186,0.099
	C382.696,15.145,383.524,17.27,382.664,18.873z"/>
</svg>
