<?xml version="1.0" encoding="utf-8"?>
<!-- Generator: Adobe Illustrator 18.0.0, SVG Export Plug-In . SVG Version: 6.00 Build 0)  -->
<!DOCTYPE svg PUBLIC "-//W3C//DTD SVG 1.1//EN" "http://www.w3.org/Graphics/SVG/1.1/DTD/svg11.dtd">
<svg version="1.1" id="Layer_1" xmlns="http://www.w3.org/2000/svg" xmlns:xlink="http://www.w3.org/1999/xlink" x="0px" y="0px"
	 viewBox="0 0 1250 372" enable-background="new 0 0 1250 372" xml:space="preserve">
<g>
	<polygon fill="#002B5A" points="522,52 522.3,50.7 521.3,50.1 521.3,50.1 521,44.9 538.7,55.3 561.4,42 559.3,40.8 561.6,39.3 
		560.5,38.7 560.4,38.8 560.4,38.9 538.8,52.1 521.3,41.6 520.8,36.2 523.9,38 538.7,46.7 542.5,44.5 561.4,33.4 542,21.9 
		519.8,35.3 520.2,42 520.2,42.2 521.7,43.1 519.8,44.2 520.3,51 520.3,51 521.9,51.9 	"/>
	<polygon fill="#002B5A" points="538.8,60.7 528.4,54.4 527.9,55.6 538.8,62.4 561.6,48 560.5,47.3 	"/>
	<polygon fill="#002B5A" points="524,48.5 521.8,55 524.5,54.7 526.2,57.8 528.9,51.7 	"/>
</g>
</svg>
