<?xml version="1.0" encoding="utf-8"?>
<!-- Generator: Adobe Illustrator 17.1.0, SVG Export Plug-In . SVG Version: 6.00 Build 0)  -->
<!DOCTYPE svg PUBLIC "-//W3C//DTD SVG 1.1//EN" "http://www.w3.org/Graphics/SVG/1.1/DTD/svg11.dtd">
<svg version="1.1" id="Layer_1" xmlns="http://www.w3.org/2000/svg" xmlns:xlink="http://www.w3.org/1999/xlink" x="0px" y="0px"
	 viewBox="0 0 738 60" enable-background="new 0 0 738 60" xml:space="preserve">
<path d="M364.268,40.897c0,0-1.977-4.608-2.751-7.115c-0.773-2.507-0.946-2.83-1.848-4.002c-0.902-1.172-1.805-3.032-2.837-4.123
	c-1.031-1.091-3.653-4.002-4.04-6.185c-0.387-2.183-0.43-5.376-0.43-5.376s-0.403,0.37-0.559,1.496
	c-0.257,1.859,0.473,4.123,0.473,4.123s0.301,1.253-0.473,0c-0.3-0.486-0.925-1.166-1.343-2.076
	c-0.658-1.434-1.101-3.27-1.224-4.535c-0.201-2.067-0.255-3.204-0.483-2.219c-0.766,3.3,0.705,6.429,0.705,6.429
	s0.625,1.385,0,0.493c-0.625-0.892-2.48-3.432-3.447-6.675c-0.373-1.249-0.642-1.537-0.565-0.247
	c0.121,2.01,0.948,3.755,1.573,4.912c0.625,1.157,0.988,1.821,0.403,1.214c-0.585-0.607-2.943-4.001-3.548-4.912
	c-0.605-0.91-0.947-1.441-0.887-0.91c0.061,0.531,0.867,2.768,1.694,4.077c0.826,1.309,2.036,2.598,1.21,1.972
	c-0.827-0.625-2.843-2.503-3.408-2.977c-0.421-0.354-1.896-1.589-1.371-0.778c0.564,0.872,1.653,1.897,1.673,2.181
	c0.02,0.284,0.141,1.347,0.545,1.934c0.403,0.588,0.746,0.967,0.746,0.967s-0.443,0.266,0.02,1.006
	c0.464,0.739,1.21,1.422,1.21,1.422s-1.331-0.171-0.605,0.872c0.726,1.043,1.129,1.327,1.129,1.327s-0.907-0.208-0.524,0.493
	c0.383,0.701,0.847,1.043,0.887,1.213c0.04,0.171,0.161,1.005,0.927,1.46c0.766,0.455,2.176,0.729,2.176,0.729
	s0.323,0.076-0.504,0.304c-0.827,0.227-1.491,0.655-1.027,1.11c0.464,0.455,1.451,0.683,1.451,0.683s-0.481,0.172-0.685,0.664
	c-0.322,0.777,0.383,1.024,0.383,1.024s0.02,0.607,0.201,0.91c0.182,0.304,0.464,0.322,0.464,0.322s-0.06,0.322,0.081,0.664
	c0.141,0.341,0.564,0.436,0.564,0.436s-0.02,0.474,0.182,0.834c0.221,0.395,0.605,0.587,0.605,0.587s0.04,0.455,0.061,0.93
	c0.02,0.474,0.504,0.683,0.504,0.683s-0.081,0.455,0.121,0.929c0.201,0.474,0.564,0.436,0.564,0.436s-0.141,0.417,0,0.948
	c0.118,0.443,0.564,0.55,0.564,0.55s-0.04,0.436,0.081,0.796c0.121,0.36,0.625,0.36,0.625,0.36s-0.02,0.417,0.121,0.778
	c0.141,0.36,0.706,0.36,0.706,0.36s0.023,0.366,0.121,0.607c0.201,0.493,0.827,0.341,0.827,0.341s-0.061,0.284,0.02,0.588
	c0.081,0.304,0.403,0.36,0.403,0.36s-0.121,0.19,0,0.417c0.121,0.227,0.464,0.284,0.303,0.36c-0.161,0.076-1.633,0.019-3.206,0
	c-1.573-0.019-4.456-0.36-5.947-0.721c-1.492-0.36-2.601-0.701-2.561-0.417c0.04,0.284,0.403,0.55,0.403,0.55
	s-0.968,0.152-0.524,0.55c0.443,0.398,1.028,0.531,1.028,0.531s-1.089,0.341-0.222,0.929c0.607,0.411,1.089,0.398,1.089,0.398
	s-1.048,0.683-0.182,1.081c0.867,0.398,1.21,0.36,1.21,0.36s-0.424,0.74,0.343,0.948s1.29,0.152,1.29,0.152
	s-0.343,0.531,0.483,0.701c0.827,0.171,1.855,0.133,1.855,0.133s-0.524,0.569,0.242,0.796c0.882,0.262,2.238-0.151,2.238-0.151
	s-0.282,0.796,0.383,0.815c0.665,0.019,2.298-0.36,2.298-0.36s-0.303,0.55,0.504,0.626c0.806,0.076,1.734-0.398,1.734-0.398
	s-0.041,0.36,0.746,0.379c0.786,0.019,1.492-0.303,1.492-0.303s0.202,0.227,0.847,0.303c0.645,0.076,1.048-0.019,1.068-0.455
	c0.02-0.436-0.04-1.271-0.04-1.271s1.149-0.038,2.44-0.266c1.29-0.227,2.359-0.36,3.044-0.303c0.686,0.057,1.029,0.208,1.371,0.474
	c0.343,0.265,0.443,0.398,0.483,0.569c0.041,0.171,0.08,0.511,0.295,0.191c0.166-0.246,0.253-0.567,0.253-1.133
	c0-0.567,0.193-1.158,0.214-1.364c0.022-0.205,0.098-0.564,0.022-0.821c-0.109-0.37-0.15-0.718,0.153-0.904
	c0.437-0.267,2.118-0.985,5.239-1.766c2.53-0.633,4.431-1.252,5.806-1.293c1.375-0.041,3.82-0.246,5.479-0.206
	c1.659,0.041,4.017,0.041,5.086-0.636c1.07-0.678,3.013-2.505,3.362-2.895c0.349-0.391,0.371-0.76-0.393-0.226
	c-0.764,0.534-2.838,2.402-4.148,2.485c-1.31,0.082-5.392,0.102-8.143,0.123c-2.75,0.02-7.007,0.226-9.212,0.801
	c-2.205,0.575-5.96,1.663-5.96,1.663s-1.135-0.472-1.812-0.862c-0.677-0.39-1.244-0.862-1.506-1.252
	C364.418,41.236,364.268,40.897,364.268,40.897"/>
</svg>
