<?xml version="1.0" encoding="utf-8"?>
<!-- Generator: Adobe Illustrator 18.0.0, SVG Export Plug-In . SVG Version: 6.00 Build 0)  -->
<!DOCTYPE svg PUBLIC "-//W3C//DTD SVG 1.1//EN" "http://www.w3.org/Graphics/SVG/1.1/DTD/svg11.dtd">
<svg version="1.1" id="Layer_1" xmlns="http://www.w3.org/2000/svg" xmlns:xlink="http://www.w3.org/1999/xlink" x="0px" y="0px"
	 viewBox="0 0 1250 372" enable-background="new 0 0 1250 372" xml:space="preserve">
<g>
	<path fill="#002B5A" d="M317,31c0,1-0.1,2.1-0.4,3.3c-0.3,1.2-0.5,1.8-0.8,1.8c-0.2,0-0.3-0.1-0.3-0.3c0-0.1,0-0.1,0.1-0.3
		c0.5-1.4,0.8-2.8,0.8-4.4c0-2.5-0.7-4.4-2.2-5.9c-1.5-1.5-3.4-2.2-5.8-2.2c-3.2,0-6.5,1.1-10,3.2c2.7,2,4.1,4.4,4.1,7.1
		c0,4.4-3,6.9-8.9,7.8c4.9,1.7,7.3,4.8,7.3,9.3c0,3.4-1.4,6.3-4.3,8.8c-2.9,2.5-6.2,3.8-10,3.8c-1.8,0-3.3-0.5-4.4-1.4
		c-1.1-0.9-1.6-2.2-1.6-3.8c0-2.5,1.1-5,3.4-7.4c2.3-2.4,4.6-3.7,6.9-3.7c1.3,0,2.3,0.4,3.2,1.2c0.8,0.8,1.2,1.8,1.2,3.1
		c0,0.8-0.2,1.7-0.7,2.8c-0.5,1.1-0.8,1.7-1.1,1.7c-0.2,0-0.3-0.1-0.3-0.2c0-0.1,0-0.2,0.1-0.4c1-1.5,1.5-2.8,1.5-4
		c0-1.1-0.4-2-1.1-2.7c-0.7-0.7-1.7-1-2.8-1c-2.2,0-4.4,1.2-6.5,3.5c-2.1,2.3-3.2,4.7-3.2,7.1c0,1.3,0.4,2.4,1.3,3.2
		c0.9,0.9,2,1.3,3.3,1.3c3,0,5.7-1.4,8.2-4.3c2.5-2.9,3.7-6.1,3.7-9.6c0-3.2-1.6-5.6-4.7-7.1l-1.7,0.2c-0.5,0.1-0.9,0.1-1.4,0.1
		c-1.5,0-2.2-0.2-2.2-0.7c0-0.4,0.6-0.5,1.8-0.5c0.9,0,2,0.2,3.5,0.5c2-0.6,3.6-1.7,4.8-3.3c1.2-1.6,1.8-3.4,1.8-5.4
		c0-2-0.8-3.7-2.3-5.3c-4.3,3.3-8.3,8.8-12.1,16.7c-2.3,4.8-4.4,8.3-6.4,10.5c-1.9,2.1-4.5,4-8,5.7c-4.1,2-7.7,3-10.9,3
		c-2.6,0-4.8-0.6-6.5-1.8c-1.7-1.2-2.6-2.7-2.6-4.5c0-1,0.3-1.9,0.9-2.6c0.6-0.7,1.3-1.1,2.1-1.1c1.2,0,1.8,0.7,1.8,2
		c0,0.7-0.2,1.2-0.6,1.7c-0.4,0.5-0.9,0.7-1.5,0.7c-1,0-1.5-0.5-1.5-1.6c0-0.4,0-0.6-0.1-0.6c-0.3,0-0.5,0.5-0.5,1.6
		c0,1.6,0.8,3,2.4,4c1.6,1.1,3.6,1.6,6,1.6c4.3,0,8.1-1.6,11.6-4.7c1.5-1.4,2.8-2.8,3.9-4.3c1.1-1.5,3.7-5.3,7.6-11.4
		c1.9-2.9,4.3-5.9,7-8.9c2.7-3,5-5.1,6.8-6.4c-3.1-2.6-7.5-3.9-13.4-3.9c-8.2,0-15.4,3-21.5,8.9c-5,4.9-7.5,9.5-7.5,13.8
		c0,2.2,0.7,3.9,2.1,5.2c1.4,1.3,3.3,1.9,5.7,1.9c3.9,0,8-1.9,12.2-5.6c4.2-3.8,6.3-7.4,6.3-11c0-2.8-1.5-4.2-4.4-4.2
		c-2.9,0-6,1.6-9.3,4.8c-3.3,3.2-5,6.3-5,9.1c0,0.7,0.2,1.3,0.7,1.8c0.5,0.5,1,0.8,1.6,0.8c0.3,0.1,0.5,0.1,0.5,0.2
		c0,0.2-0.2,0.3-0.6,0.3c-0.9,0-1.7-0.4-2.4-1.3c-0.6-0.8-1-1.9-1-3.1c0-3,1.7-6,5-8.8c3.3-2.9,6.8-4.3,10.3-4.3c3.4,0,5,1.6,5,4.7
		c0,3.8-2.1,7.6-6.4,11.5c-4.3,3.9-8.5,5.8-12.6,5.8c-2.7,0-4.9-0.8-6.5-2.4c-1.6-1.6-2.4-3.8-2.4-6.5c0-5.5,3.1-10.6,9.3-15.1
		c6.2-4.6,13.1-6.8,20.7-6.8c5.7,0,10.5,1.3,14.5,3.8c3.6-2.2,7-3.3,10.4-3.3c2.6,0,4.7,0.8,6.3,2.3C316.2,26.4,317,28.5,317,31z"/>
</g>
</svg>
