<?xml version="1.0" encoding="utf-8"?>
<!-- Generator: Adobe Illustrator 18.0.0, SVG Export Plug-In . SVG Version: 6.00 Build 0)  -->
<!DOCTYPE svg PUBLIC "-//W3C//DTD SVG 1.1//EN" "http://www.w3.org/Graphics/SVG/1.1/DTD/svg11.dtd">
<svg version="1.1" id="Layer_1" xmlns="http://www.w3.org/2000/svg" xmlns:xlink="http://www.w3.org/1999/xlink" x="0px" y="0px"
	 viewBox="0 0 1250 372" enable-background="new 0 0 1250 372" xml:space="preserve">
<g>
	<path fill="#002B5A" d="M22.3,27.8h15.3v2.4H25v9.9h10.3v2.4H25v10.1h13.4V55h-16V27.8z"/>
	<path fill="#002B5A" d="M53.9,43H55v-0.5c0-3.8-2.1-5-4.8-5c-3.2,0-5.5,1.9-5.5,1.9l-1.2-2c0,0,2.6-2.2,6.9-2.2
		c4.7,0,7.3,2.6,7.3,7.5V55h-2.5v-2.1c0-1,0.1-1.6,0.1-1.6h-0.1c0,0-1.6,4.2-6.5,4.2c-3.3,0-6.6-1.9-6.6-5.8
		C42,43.1,50.6,43,53.9,43z M49.1,53.2c3.7,0,6-3.9,6-7.2v-0.9h-1.1c-3.1,0-9.2,0.1-9.2,4.4C44.7,51.4,46.2,53.2,49.1,53.2z"/>
	<path fill="#002B5A" d="M70.5,60.8c3.8,0,6.8-1.8,6.8-6.1v-1.8c0-0.7,0.1-1.4,0.1-1.4h-0.1c-1.2,2.2-3.1,3.4-6.2,3.4
		c-5.2,0-8.7-4.1-8.7-10s3.2-9.8,8.4-9.8c5.1,0,6.4,3.3,6.4,3.3h0.1c0,0,0-0.2,0-0.7v-2.1h2.6v19c0,6.2-4.6,8.6-9.3,8.6
		c-2.2,0-4.5-0.6-6.4-1.5l1-2.2C65.2,59.4,67.6,60.8,70.5,60.8z M77.3,44.9c0-5.7-2.7-7.4-6.2-7.4c-3.8,0-6,2.7-6,7.4
		s2.5,7.7,6.4,7.7C74.6,52.5,77.3,50.7,77.3,44.9z"/>
	<path fill="#002B5A" d="M86,27.8h2.6v22c0,2.6,1.2,2.9,2.2,2.9c0.3,0,0.7,0,0.7,0v2.4c0,0-0.5,0.1-1,0.1c-1.6,0-4.5-0.5-4.5-4.8
		V27.8z"/>
	<path fill="#002B5A" d="M104,35.1c5.4,0,8.1,4.1,8.1,9c0,0.5-0.1,1.4-0.1,1.4H97.1c0.1,5,3.5,7.7,7.5,7.7c3.6,0,5.9-2.4,5.9-2.4
		l1.2,2c0,0-2.8,2.7-7.2,2.7c-5.8,0-10.2-4.2-10.2-10.2C94.4,38.9,98.8,35.1,104,35.1z M109.5,43.3c-0.2-4.1-2.6-6-5.5-6
		c-3.3,0-6.1,2.1-6.7,6H109.5z"/>
	<path fill="#002B5A" d="M118,27.8h2.6l13.9,19.6c0.9,1.4,2.2,3.7,2.2,3.7h0.1c0,0-0.2-2.2-0.2-3.7V27.8h2.7V55h-2.6l-13.9-19.6
		c-0.9-1.4-2.2-3.7-2.2-3.7h-0.1c0,0,0.2,2.2,0.2,3.7V55H118V27.8z"/>
	<path fill="#002B5A" d="M154.6,35.1c5.4,0,8.1,4.1,8.1,9c0,0.5-0.1,1.4-0.1,1.4h-14.9c0.1,5,3.5,7.7,7.5,7.7c3.6,0,5.9-2.4,5.9-2.4
		l1.2,2c0,0-2.8,2.7-7.2,2.7c-5.8,0-10.2-4.2-10.2-10.2C145,38.9,149.3,35.1,154.6,35.1z M160,43.3c-0.2-4.1-2.6-6-5.5-6
		c-3.3,0-6.1,2.1-6.7,6H160z"/>
	<path fill="#002B5A" d="M168.5,38h-2.6v-2.2h2.6v-5.6h2.6v5.6h4.9V38h-4.9v9.7c0,4.6,2.9,5.1,4.4,5.1c0.5,0,0.9-0.1,0.9-0.1v2.4
		c0,0-0.4,0.1-1.1,0.1c-2.2,0-6.8-0.7-6.8-7.2V38z"/>
</g>
</svg>
