<?xml version="1.0" encoding="utf-8"?>
<!-- Generator: Adobe Illustrator 18.0.0, SVG Export Plug-In . SVG Version: 6.00 Build 0)  -->
<!DOCTYPE svg PUBLIC "-//W3C//DTD SVG 1.1//EN" "http://www.w3.org/Graphics/SVG/1.1/DTD/svg11.dtd">
<svg version="1.1" id="Layer_1" xmlns="http://www.w3.org/2000/svg" xmlns:xlink="http://www.w3.org/1999/xlink" x="0px" y="0px"
	 viewBox="0 0 1250 372" enable-background="new 0 0 1250 372" xml:space="preserve">
<g>
	<g>
		<g>
			<path fill-rule="evenodd" clip-rule="evenodd" fill="#002B5A" d="M351.4,22.2c-10.8,2.3-23.1,4.8-23.1,17.5c0,2.8,1,5.5,2,7.1
				c6.8,11.4,29.2,12.8,46.6,10.7c18-2.2,33.4-7.4,42.6-16.7c-8.3,12.9-25.6,19-44.8,21.4c-19.9,2.4-44.5-0.7-50.3-14.7
				c-2.9-7.1-0.2-14.9,3.7-18.7C333.3,23.8,341.3,21.6,351.4,22.2z"/>
			<path fill-rule="evenodd" clip-rule="evenodd" fill="#002B5A" d="M390,22.3c2.7,0,5.3,0,8,0c2.2,8.2,4.7,16.1,7,24.2
				c-2.5,0-4.9,0-7.4,0c-0.4-1.7-0.7-3.4-1.3-4.8c-4.5,0-8.9,0-13.4,0c-1.3,1.5-2.2,3.3-3.4,4.8c-2.2,0-4.4,0-6.5,0
				C378.5,38.3,384.2,30.3,390,22.3z M392.4,27l-6.5,10.4l9.4-0.1L392.4,27z"/>
			<path fill-rule="evenodd" clip-rule="evenodd" fill="#002B5A" d="M377.3,22.3c2.1,0,4.3,0,6.4,0c-5.1,8.4-10,16.7-14.7,24.2
				c-2.7,0-5.3,0-8,0c-1.4-8.2-3.3-16-4.7-24.2c2.4,0,4.7,0,7.1,0c0.8,6.8,1.9,13.3,2.7,20.1C370,35.4,373.5,29.4,377.3,22.3z"/>
			<path fill-rule="evenodd" clip-rule="evenodd" fill="#002B5A" d="M355.4,39.5c-4.8,0-9.7,0-14.5,0c-2.1,4.9,6.4,5.6,7.4,2
				c2.1,0,4.2,0,6.3,0c-2.2,7.3-21.1,8.8-19.9-2.4c0.6-5.9,5.8-9.9,11.8-10.1C353,28.7,357,31.8,355.4,39.5z M341.6,36.3
				c2.7,0,5.3,0,8,0C350.9,30.4,341.2,32,341.6,36.3z"/>
		</g>
	</g>
</g>
</svg>
