<?xml version="1.0" encoding="utf-8"?>
<!-- Generator: Adobe Illustrator 18.1.0, SVG Export Plug-In . SVG Version: 6.00 Build 0)  -->
<!DOCTYPE svg PUBLIC "-//W3C//DTD SVG 1.1//EN" "http://www.w3.org/Graphics/SVG/1.1/DTD/svg11.dtd">
<svg version="1.1" id="Layer_1" xmlns="http://www.w3.org/2000/svg" xmlns:xlink="http://www.w3.org/1999/xlink" x="0px" y="0px"
	 viewBox="0 0 1250 372" enable-background="new 0 0 1250 372" xml:space="preserve">
<g>
	<g>
		<g>
			<path fill="#002B5A" d="M965.6,63.2c-11.5,0-20.9-9.4-20.9-21s9.4-21,20.9-21c11.5,0,20.9,9.4,20.9,21S977.1,63.2,965.6,63.2z
				 M965.6,24.7c-9.7,0-17.6,7.9-17.6,17.6s7.9,17.6,17.6,17.6c9.7,0,17.6-7.9,17.6-17.6S975.3,24.7,965.6,24.7z"/>
		</g>
		<circle fill="#002B5A" cx="965.6" cy="42.2" r="3.5"/>
		<path fill="#002B5A" d="M976.1,42.2c0,1-2.7,1.7-6.1,1.7c-3.4,0-4.4-0.8-4.4-1.7c0-1,1-1.7,4.4-1.7
			C973.4,40.5,976.1,41.3,976.1,42.2z"/>
		<path fill="#002B5A" d="M967.4,36.1c0,4.3-0.8,6.1-1.7,6.1c-1,0-1.7-1.8-1.7-6.1s0.8-7.9,1.7-7.9
			C966.6,28.2,967.4,31.8,967.4,36.1z"/>
	</g>
</g>
</svg>
