<?xml version="1.0" encoding="utf-8"?>
<!-- Generator: Adobe Illustrator 17.1.0, SVG Export Plug-In . SVG Version: 6.00 Build 0)  -->
<!DOCTYPE svg PUBLIC "-//W3C//DTD SVG 1.1//EN" "http://www.w3.org/Graphics/SVG/1.1/DTD/svg11.dtd">
<svg version="1.1" id="Layer_1" xmlns="http://www.w3.org/2000/svg" xmlns:xlink="http://www.w3.org/1999/xlink" x="0px" y="0px"
	 viewBox="354.1 0 28.6 51" enable-background="new 354.1 0 28.6 51" xml:space="preserve">
<path d="M381.3,47.3c0,0-4.6,1.7-10,1.7c-3.8,0-7-0.8-9.5-2.4c-4.6-2.8-5.6-10.5-5.6-16c0.1-5.5,1-13.2,5.6-16
	c2.6-1.6,5.8-2.4,9.5-2.4c5.4,0,9.9,1.6,10,1.7c0.5,0.2,1.1-0.1,1.3-0.6c0.2-0.5-0.1-1.1-0.6-1.3c-0.2-0.1-5-1.8-10.7-1.8
	c-4.1,0-7.7,0.9-10.6,2.7c-4.7,2.8-6.2,9.4-6.6,15h-0.1l0,0.5c0,0.7,0,1.5,0,2.3c0,0,0,0,0,0.1s0,0,0,0.1c0,0.8,0,1.6,0,2.3l0,0.5
	h0.1c0.4,5.6,1.9,12.1,6.6,15c2.9,1.8,6.5,2.7,10.6,2.7c5.7,0,10.5-1.7,10.7-1.8c0.5-0.2,0.8-0.8,0.6-1.3
	C382.5,47.4,381.9,47.1,381.3,47.3z"/>
</svg>
