<svg class="umw-global-logo-img" role="img" aria-label="University of Mary Washington" title="University of Mary Washington" xmlns="http://www.w3.org/2000/svg" xmlns:xlink="http://www.w3.org/1999/xlink" version="1.1" x="0px" y="0px" viewBox="0 0 271.398 12.895" enable-background="new 0 0 271.398 12.895" xml:space="preserve"><title>University of Mary Washington</title><desc>Where Great Minds Get To Work</desc><style>.style0{fill:	#002D5C;}</style><g><path d="M0 0l5.438 0.001v0.571C4.028 0.6 3.7 0.7 3.6 2.088L3.632 8.132c0 0.7 0 1.4 0.2 2 c0.462 1.2 1.8 1.9 3.4 1.946c1.211 0 2.299-0.429 2.94-1.088c0.857-0.873 0.857-1.941 0.858-3.297l0.001-5.171 c-0.051-1.588-0.246-1.873-1.746-1.962V0.004l4.264 0.001v0.573c-1.339 0.175-1.733 0.532-1.767 2.084L11.764 7.8 c-0.054 1.89-0.073 3.368-1.909 4.42c-0.981 0.552-1.926 0.694-2.978 0.694c-1.496-0.001-3.013-0.303-4.064-1.339 c-0.979-0.982-1.017-1.892-1.053-2.853L1.763 2.23C1.746 1.6 1.7 1.2 1.5 0.964C1.229 0.6 0.8 0.6 0 0.554V0z" class="style0"/><path d="M20.294 2.693h3.41v0.492c-0.322 0.014-0.647 0.042-0.913 0.196c-0.406 0.252-0.478 0.645-0.505 1.4 l-0.004 7.885h-0.645l-5.203-7.255c-0.436-0.603-0.547-0.773-1.008-1.545l-0.004 6.609c0 0.4 0 0.8 0.2 1.1 c0.309 0.5 0.9 0.5 1.3 0.52l-0.003 0.462l-3.534-0.001v-0.478c0.267-0.014 0.546-0.023 0.798-0.14 c0.648-0.279 0.674-0.925 0.69-1.515l0.001-6.48c-0.056-0.743-0.447-0.772-1.387-0.827V2.689l2.835 0.001l4.317 6 c0.518 0.7 0.7 0.9 1.1 1.628l0.001-5.652c-0.026-1.123-0.294-1.404-1.402-1.503V2.693z" class="style0"/><path d="M24.545 2.693l4.292 0.002L28.836 3.16c-1.037 0.027-1.401 0.067-1.402 1.064l-0.003 6.7 c0 0.5 0 0.7 0.2 0.953c0.226 0.2 0.5 0.2 1.2 0.238V12.6l-4.447-0.001v-0.476 c1.275-0.029 1.461-0.071 1.489-1.347l0.001-6.58c0-0.281 0-0.562-0.252-0.786c-0.211-0.196-0.488-0.225-1.149-0.267V2.693z" class="style0"/><path d="M29.455 2.683l4.066 0.001l0.003 0.464c-0.773 0.014-1.181 0.027-1.181 0.5 c0 0.1 0 0.3 0.2 0.522l1.751 4.194c0.504 1.2 0.6 1.5 1 2.594l2.626-6.591 c0.155-0.351 0.199-0.492 0.199-0.645c0-0.112-0.029-0.337-0.282-0.448c-0.124-0.057-0.14-0.057-0.938-0.087V2.685l3.407 0 V3.15c-1.233 0.083-1.346 0.334-1.696 1.219l-3.439 8.389h-0.549l-3.713-8.657c-0.295-0.659-0.49-0.844-1.417-0.955V2.683z" class="style0"/><path d="M40.917 2.688l7.167 0.003l0.28 2.455h-0.449c-0.518-1.6-0.854-1.924-2.217-1.937h-1.92l-0.003 3.899h0.927 c0.366-0.015 0.759-0.029 1.053-0.35c0.269-0.294 0.31-0.716 0.337-1.038h0.434v3.367h-0.451c-0.013-0.351-0.026-0.686-0.18-0.955 c-0.281-0.477-0.799-0.505-1.179-0.519l-0.941-0.001v3.24c0 0.5 0 0.9 0.6 1.082c0.405 0.2 0.8 0.2 1.4 0.2 c0.631 0 1.416-0.025 2.035-0.602c0.533-0.492 0.786-1.22 0.91-1.977h0.438l-0.183 3.088l-8.11-0.006v-0.477 c1.177-0.04 1.417-0.097 1.474-1.08l0.002-6.789c0-0.268 0.001-0.617-0.211-0.843c-0.21-0.223-0.418-0.237-1.176-0.266V2.688z" class="style0"/><path d="M49.977 2.691l3.424 0.003c0.814 0 1.9 0 2.7 0.294c0.995 0.4 1.6 1.2 1.6 2.2 c-0.001 0.534-0.168 1.137-0.703 1.67c-0.674 0.644-1.401 0.756-2.005 0.827c1.19 0.3 1.3 0.4 2.2 1.669l1.359 1.9 c0.547 0.7 0.6 0.8 1.4 0.827v0.463h-2.273c-0.309-0.279-0.492-0.463-0.798-0.927c-0.156-0.237-0.873-1.433-1.04-1.697 c-1.291-2.091-1.346-2.092-3.057-2.05l-0.002 2.948c0 0.4 0 0.8 0.3 1.023c0.239 0.2 0.5 0.2 1.2 0.253v0.449 l-4.418-0.001v-0.449c1.105-0.056 1.459-0.113 1.459-1.249l0.003-6.537c0-0.436-0.016-0.729-0.226-0.94 c-0.21-0.223-0.393-0.223-1.165-0.28V2.691z M53.976 7.462c0.462-0.014 0.84-0.041 1.163-0.18c0.772-0.352 0.97-1.192 0.97-1.965 c0.001-1.207-0.504-1.613-0.868-1.824c-0.546-0.31-1.082-0.31-2.4-0.297v4.266H53.976z" class="style0"/><path d="M61.026 9.513c0.097 0.4 0.4 1.8 1.5 2.415c0.422 0.2 0.9 0.3 1.3 0.3 c1.207 0 2.034-0.756 2.034-1.809c0.003-1.01-0.684-1.474-0.979-1.655c-0.336-0.226-0.492-0.322-1.993-1.081 c-1.12-0.591-2.2-1.137-2.199-2.709c0-1.81 1.501-2.553 2.762-2.553c0.366 0 0.7 0.1 1 0.2 c0.604 0.2 0.9 0.4 1.2 0.59c0.139-0.224 0.184-0.28 0.309-0.575h0.324l0.038 2.681h-0.434 c-0.112-0.478-0.253-0.996-0.547-1.418c-0.392-0.547-1.079-0.954-1.88-0.954c-1.052-0.001-1.655 0.644-1.655 1.4 c0 0.4 0.1 0.7 0.3 0.898c0.322 0.4 0.8 0.7 2.6 1.613c1.135 0.6 2.2 1.1 2.2 2.9 c0 0.363-0.044 0.884-0.27 1.389c-0.238 0.547-1.023 1.654-2.65 1.654c-0.28-0.001-0.617-0.028-1.024-0.141 c-0.856-0.227-1.348-0.602-1.737-0.913c-0.183 0.423-0.198 0.476-0.338 0.856h-0.436l0.001-3.143H61.026z" class="style0"/><path d="M67.808 2.712l4.294 0.002v0.465c-1.038 0.027-1.404 0.066-1.404 1.063l-0.001 6.7 c0 0.5 0 0.7 0.2 0.956c0.224 0.2 0.5 0.2 1.2 0.237v0.479l-4.447-0.002v-0.479 c1.276-0.026 1.458-0.068 1.487-1.346l0.002-6.578c0-0.28 0-0.561-0.251-0.786c-0.211-0.196-0.491-0.225-1.152-0.268V2.712z" class="style0"/><path d="M73 2.701l8.517 0.002l0.235 2.513h-0.407c-0.124-0.464-0.294-1.052-0.713-1.474 c-0.491-0.477-1.053-0.491-1.613-0.491L77.994 3.25l-0.004 7.87c0.016 0.5 0.1 0.8 0.6 1 c0.112 0 0.2 0 0.8 0.07v0.465l-4.434-0.001l0.001-0.465c1.136-0.056 1.486-0.097 1.486-1.109l0.004-7.798 l-1.079-0.001c-0.871 0.028-1.22 0.083-1.603 0.546c-0.333 0.421-0.504 0.871-0.657 1.415h-0.436L73 2.701z" class="style0"/><path d="M82.091 2.706h4.235v0.478c-0.645-0.015-1.093-0.015-1.093 0.365c-0.003 0.1 0.1 0.2 0.2 0.4 l2.104 3.689l2.161-3.591c0.083-0.154 0.168-0.294 0.168-0.42c0-0.395-0.435-0.407-1.36-0.451V2.706l3.536 0.002l-0.001 0.5 c-0.911 0.07-1.221 0.183-1.753 0.995l-2.457 4.038v2.933c-0.003 0.9 0.4 1 1.5 1.025v0.449l-4.462-0.001v-0.449 c0.647-0.043 0.758-0.056 0.913-0.099c0.505-0.141 0.561-0.49 0.575-1.01l0.001-2.804l-2.622-4.211 c-0.462-0.702-0.729-0.813-1.584-0.872V2.706z" class="style0"/><path d="M97.241 5.181c0.604-1.179 2.063-2.707 4.742-2.706c0.448 0 0.9 0.1 1.4 0.2 c1.99 0.4 3.9 2.2 3.9 5.008c-0.001 2.96-2.048 5.232-5.305 5.23c-3.001-0.003-5.218-2.05-5.215-5.122 C96.679 6.9 96.8 6 97.2 5.181z M99.863 3.597C98.7 4.5 98.4 6 98.4 7.51c0 0.6 0 1.2 0.2 1.8 c0.083 0.5 0.3 1.5 1.1 2.273c0.366 0.3 1.1 0.8 2.2 0.772c1.166 0 2.093-0.475 2.624-1.121 c0.618-0.729 0.972-2.034 0.972-3.69c0-0.73-0.056-2.048-0.661-3.072c-0.616-1.024-1.681-1.542-2.886-1.545 C101.381 2.9 100.6 3 99.9 3.597z" class="style0"/><path d="M107.72 2.73l7.17 0.003l0.265 2.412h-0.435c-0.183-0.518-0.378-1.08-0.715-1.445 c-0.436-0.449-0.912-0.463-1.559-0.478h-1.866v3.916h1.067c0.309 0 0.604-0.017 0.869-0.281c0.322-0.323 0.337-0.758 0.35-1.094 h0.464l-0.001 3.365h-0.463c0-0.336 0-0.728-0.21-1.037c-0.295-0.422-0.744-0.435-1.054-0.451h-1.022l-0.001 3.1 c0 0.8 0 1.1 0.3 1.276c0.197 0.2 0.3 0.2 1.2 0.195v0.466l-4.433-0.004v-0.476 c0.785-0.014 1.179-0.029 1.375-0.419c0.099-0.199 0.111-0.465 0.111-0.997l0.004-6.522c0-0.24 0-0.549-0.224-0.773 c-0.224-0.212-0.562-0.239-1.165-0.268V2.73z" class="style0"/><g><path d="M132.73 0.008h3.765v0.609c-0.841 0.054-1.04 0.054-1.291 0.197c-0.571 0.286-0.555 0.948-0.535 1.4 l0.071 8.06c0.003 0.5 0 1 0.1 1.269c0.233 0.5 0.6 0.5 1.7 0.538v0.572l-5.627 0.002v-0.592 c0.896-0.035 1.129-0.054 1.38-0.196c0.483-0.269 0.534-0.824 0.534-1.416l-0.017-6.357c0.017-1.145 0.017-1.485 0.09-2.723 c-0.178 0.52-0.288 0.842-0.574 1.54l-4.045 9.744h-0.59l-3.925-9.438c-0.306-0.771-0.322-0.841-0.628-1.701 c-0.035 1.755-0.053 3.511-0.053 5.248c0 1.6 0 2.4 0 3.473c0.034 1.1 0.2 1.7 1.9 1.827v0.592l-4.513 0 v-0.593c1.521-0.214 1.736-0.572 1.825-1.809l0.107-7.861c0.019-1.613-0.304-1.791-1.81-1.809V0.009h3.798l3.027 7.2 c0.502 1.3 0.6 1.6 1.1 2.918L132.73 0.008z" class="style0"/><path d="M142.179 2.577h0.451l3.285 8.116c0.408 1 0.6 1.4 1.6 1.507v0.451h-4.17V12.2 c0.719 0 1.3 0 1.283-0.508c0-0.127-0.029-0.225-0.184-0.619l-0.805-2.028h-3.438l-0.705 1.8 c-0.125 0.38-0.182 0.551-0.182 0.704c0 0.5 0.4 0.6 1.1 0.647v0.451h-3.271v-0.449c0.971-0.113 1.24-0.367 1.664-1.354 L142.179 2.577z M142.716 6.595c-0.354-0.919-0.41-1.087-0.732-2.045l-1.553 3.986h3.031L142.716 6.595z" class="style0"/><path d="M148.113 2.689h3.438c0.818 0 1.9 0 2.7 0.295c0.998 0.4 1.6 1.2 1.6 2.3 c0 0.537-0.168 1.143-0.703 1.678c-0.678 0.648-1.408 0.762-2.016 0.831c1.197 0.3 1.3 0.4 2.2 1.678l1.367 1.9 c0.547 0.7 0.6 0.8 1.4 0.833v0.463h-2.283c-0.307-0.28-0.49-0.463-0.803-0.93c-0.154-0.239-0.873-1.436-1.041-1.704 c-1.299-2.099-1.354-2.1-3.072-2.057v2.959c0 0.4 0 0.8 0.3 1.029c0.24 0.2 0.5 0.2 1.2 0.252v0.45h-4.438V12.2 c1.113-0.057 1.465-0.112 1.465-1.255V4.38c0-0.436-0.014-0.731-0.225-0.944c-0.211-0.224-0.396-0.224-1.17-0.279V2.689z M152.13 7.48c0.463-0.014 0.846-0.043 1.168-0.184c0.773-0.353 0.973-1.198 0.971-1.972c0.002-1.214-0.504-1.621-0.873-1.834 c-0.549-0.309-1.082-0.309-2.408-0.295V7.48H152.13z" class="style0"/><path d="M156.99 2.688h4.256v0.478c-0.648-0.013-1.1-0.013-1.1 0.367c0 0.1 0.1 0.2 0.2 0.409l2.113 3.7 l2.172-3.606c0.084-0.153 0.17-0.295 0.17-0.423c0-0.395-0.438-0.408-1.367-0.449l-0.002-0.48h3.553v0.478 c-0.918 0.07-1.228 0.184-1.762 1.001l-2.465 4.058v2.945c0 0.9 0.4 1 1.5 1.028l0.002 0.45h-4.48v-0.45 c0.648-0.042 0.76-0.056 0.916-0.099c0.506-0.14 0.564-0.493 0.576-1.015V8.269l-2.635-4.229 c-0.465-0.702-0.734-0.816-1.592-0.872V2.688z" class="style0"/><path d="M170.83 0.006l5.07-0.001v0.573c-0.195 0.018-0.699 0.036-0.859 0.1 c-0.143 0.035-0.574 0.125-0.574 0.626c0 0.1 0 0.3 0.1 0.645l1.504 5.229c0.355 1.3 0.4 1.6 0.7 2.8 l3.061-9.994h0.574l2.527 7.324c0.375 1.1 0.5 1.4 0.8 2.616c0.141-0.664 0.178-0.844 0.393-1.542l1.844-6.268 c0.074-0.286 0.145-0.537 0.145-0.752c0-0.733-0.719-0.751-1.666-0.788V0.004h4.35v0.591c-1.289 0.108-1.645 0.252-2.021 1.4 l-3.188 10.817h-0.682l-3.332-9.599l-2.953 9.601h-0.734l-3.297-10.781c-0.322-0.984-0.518-1.361-1.828-1.521V0.006z" class="style0"/><path d="M189.912 2.573h0.449l3.285 8.115c0.41 1 0.6 1.4 1.6 1.508v0.451h-4.17v-0.45 c0.719 0 1.3 0 1.281-0.508c0-0.127-0.025-0.227-0.184-0.619l-0.801-2.03h-3.441l-0.701 1.8 c-0.129 0.381-0.186 0.55-0.186 0.706c0 0.5 0.4 0.6 1.1 0.648v0.45l-3.268 0.001v-0.451 c0.969-0.111 1.24-0.366 1.66-1.352L189.912 2.573z M190.449 6.589c-0.354-0.915-0.41-1.086-0.734-2.043l-1.549 3.987h3.031 L190.449 6.589z" class="style0"/><path d="M196.435 9.533c0.1 0.5 0.4 1.8 1.6 2.424c0.424 0.2 0.9 0.3 1.3 0.3 c1.215-0.002 2.045-0.763 2.045-1.819c0-1.015-0.689-1.481-0.986-1.664c-0.336-0.226-0.494-0.321-2.002-1.082 c-1.129-0.593-2.213-1.142-2.213-2.721c0-1.816 1.508-2.565 2.777-2.565c0.365 0 0.7 0.1 1 0.2 c0.605 0.2 0.9 0.4 1.2 0.593c0.141-0.227 0.182-0.284 0.309-0.579h0.324l0.043 2.692h-0.436 c-0.113-0.483-0.254-1.001-0.551-1.425c-0.395-0.55-1.084-0.958-1.887-0.958c-1.059 0-1.664 0.649-1.664 1.4 c0 0.4 0.1 0.7 0.3 0.903c0.326 0.4 0.8 0.7 2.6 1.62c1.141 0.6 2.2 1.1 2.2 2.9 c0 0.365-0.043 0.888-0.266 1.394c-0.24 0.55-1.029 1.663-2.664 1.663c-0.283 0-0.619-0.027-1.029-0.141 c-0.859-0.226-1.351-0.606-1.746-0.915c-0.184 0.422-0.197 0.479-0.338 0.857h-0.437V9.533H196.435z" class="style0"/><path d="M203.482 2.7l4.311-0.001v0.437c-0.66 0.027-0.705 0.043-0.846 0.07c-0.508 0.154-0.549 0.618-0.549 1.1 v2.805l4.932-0.002V4.319c-0.029-1.1-0.395-1.113-1.395-1.17v-0.45h4.299v0.45c-0.58 0.042-0.621 0.042-0.748 0.1 c-0.564 0.143-0.635 0.551-0.65 1.086l0.004 6.723c-0.016 1.1 0.3 1.1 1.5 1.154v0.463h-4.453v-0.448 c1.309-0.072 1.467-0.099 1.496-1.241l-0.004-3.253h-4.945v3.255c0 0.3 0 0.7 0.2 0.915c0.227 0.3 0.5 0.3 1.3 0.3 v0.463h-4.469v-0.479c0.719-0.068 0.736-0.068 0.873-0.097c0.482-0.113 0.607-0.323 0.623-0.902V3.98 c-0.004-0.182-0.016-0.365-0.17-0.534c-0.242-0.253-0.621-0.283-1.227-0.324V2.7z" class="style0"/><path d="M215.218 2.696h4.311l0.004 0.466c-1.045 0.029-1.41 0.07-1.41 1.071l0.002 6.7 c0 0.5 0 0.7 0.2 0.959c0.225 0.2 0.5 0.2 1.3 0.239v0.479h-4.467v-0.479c1.281-0.027 1.465-0.07 1.494-1.352 l-0.004-6.609c0-0.282 0-0.562-0.252-0.789c-0.213-0.197-0.494-0.224-1.156-0.266V2.696z" class="style0"/><path d="M227.392 2.695h3.428v0.493c-0.328 0.016-0.648 0.044-0.918 0.199c-0.41 0.253-0.479 0.646-0.508 1.4 v7.918h-0.646l-5.23-7.282c-0.434-0.605-0.549-0.775-1.016-1.551l0.004 6.636c0 0.4 0 0.8 0.2 1.1 c0.311 0.5 0.9 0.5 1.3 0.521v0.465h-3.551v-0.479c0.268-0.014 0.549-0.027 0.803-0.142c0.648-0.282 0.676-0.927 0.689-1.52 v-6.51c-0.055-0.749-0.451-0.776-1.395-0.833V2.696h2.844l4.34 6.031c0.523 0.7 0.7 0.9 1.1 1.633V4.683 c-0.029-1.127-0.297-1.408-1.408-1.508L227.392 2.695z" class="style0"/><path d="M239.822 11.898c-0.352 0.069-0.703 0.141-1.041 0.239c-0.48 0.141-0.934 0.351-1.41 0.5 c-0.549 0.17-1.113 0.255-1.691 0.255c-2.902 0-4.859-2.214-4.859-4.988c0-2.93 2.113-5.452 5.086-5.453 c1.547 0 2.6 0.7 3 0.999c0.17-0.294 0.211-0.393 0.336-0.746h0.41l0.057 3.425h-0.439 c-0.137-0.662-0.701-3.171-3.365-3.171c-2.029 0-3.381 1.606-3.381 4.706c-0.004 1.1 0.2 2 0.5 2.7 c0.492 1.1 1.4 1.9 2.8 1.93c0.971 0 1.818-0.451 2.186-0.787c0.225-0.213 0.252-0.369 0.252-0.636V9.655 c-0.016-0.378-0.057-0.732-0.635-0.832c-0.113-0.013-0.381-0.025-0.943-0.039V8.317h4.311v0.45c-0.408 0-0.635 0.017-0.789 0.1 c-0.453 0.154-0.465 0.522-0.479 0.747V11.898z" class="style0"/><path d="M241.203 2.682l8.555-0.001l0.238 2.524h-0.408c-0.127-0.467-0.299-1.06-0.721-1.48 c-0.492-0.48-1.057-0.495-1.617-0.494h-1.033v7.905c0.016 0.5 0.1 0.8 0.6 0.972c0.111 0 0.2 0 0.8 0.1 v0.467h-4.455l-0.002-0.466c1.145-0.057 1.492-0.099 1.496-1.113l-0.004-7.834h-1.082c-0.875 0.028-1.225 0.084-1.607 0.6 c-0.338 0.424-0.506 0.874-0.66 1.425h-0.438L241.203 2.682z" class="style0"/><path d="M251.107 5.159c0.607-1.183 2.074-2.718 4.766-2.718c0.449 0 0.9 0.1 1.4 0.2 c2 0.5 3.9 2.2 3.9 5.03c0 2.974-2.057 5.256-5.326 5.256c-3.014 0.002-5.24-2.056-5.24-5.142 C250.546 6.9 250.7 5.9 251.1 5.159z M253.742 3.567c-1.17 0.903-1.479 2.438-1.479 3.9 c0 0.6 0 1.2 0.2 1.816c0.084 0.5 0.3 1.6 1.1 2.283c0.365 0.3 1.1 0.8 2.2 0.8 c1.168 0 2.102-0.479 2.635-1.127c0.621-0.732 0.973-2.044 0.973-3.706c0-0.734-0.057-2.057-0.662-3.086 c-0.623-1.028-1.691-1.55-2.904-1.55C255.263 2.9 254.5 3 253.7 3.567z" class="style0"/><path d="M267.972 2.693h3.426v0.492c-0.324 0.015-0.648 0.042-0.916 0.197c-0.406 0.253-0.48 0.649-0.506 1.4 v7.92h-0.647l-5.23-7.285c-0.436-0.605-0.549-0.774-1.016-1.548l0.004 6.635c0 0.4 0 0.8 0.2 1.1 c0.312 0.5 0.9 0.5 1.3 0.521v0.465l-3.553 0.001v-0.48c0.266-0.013 0.551-0.029 0.803-0.142 c0.65-0.281 0.68-0.93 0.691-1.521v-6.51c-0.057-0.746-0.451-0.774-1.396-0.829V2.693h2.846l4.342 6 c0.521 0.7 0.7 0.9 1.1 1.635v-5.68c-0.029-1.126-0.299-1.407-1.412-1.506V2.693z" class="style0"/></g></g></svg>